<?xml version="1.0" encoding="iso-8859-1"?>
<!-- Uploaded to: SVG Repo, www.svgrepo.com, Generator: SVG Repo Mixer Tools -->
<svg height="800px" width="800px" version="1.1" id="Layer_1" xmlns="http://www.w3.org/2000/svg" xmlns:xlink="http://www.w3.org/1999/xlink" 
	 viewBox="0 0 385.6 385.6" xml:space="preserve">
<path style="fill:#EF934A;" d="M98,4h260c6.8,0,12,2,16.4,6.4s6.4,9.6,6.4,16.4v260c0,13.2-9.6,25.6-22.8,25.6h-23.6
	c-13.2,0-25.6-12.4-25.6-25.6V126l-248,248.8c-9.2,9.2-24,9.2-33.6,0L10.8,358c-9.2-9.2-9.2-23.6,0-33.2L260.8,76H98.4
	c-13.2,0-25.2-12.8-25.2-26V26.4C72.8,13.2,84.8,4,98,4z"/>
<path style="fill:#F0B551;" d="M294,24H148h-28.8h-14.8c-5.6,0-11.6,3.2-11.6,8.8v10.8c0,5.6,6,12.4,11.6,12.4h201.2h2.8L29.2,334.4
	c-4,4-4,10.4,0,14.4l7.6,7.6c4,4,10.8,4,14.8,0l6.8-6.8l19.2-20l251.2-252v1.2V280c0,5.6,6.4,12,12,12h10.8c5.6,0,9.2-6.4,9.2-12
	V33.2c0-2.8-0.4-4.8-2.4-6.8s-4-2.4-6.8-2.4H326L294,24L294,24z"/>
<path d="M44,385.6c-7.2,0-14-2.8-19.6-8.4L8,360.4c-5.2-5.2-8-12-8-19.2s2.8-14,8.4-19.2L251.6,80H98.8c-15.2,0-29.2-14.4-29.2-30
	V26.4C69.6,11.6,82.4,0,98.8,0h260c8,0,14,2.4,19.2,7.6s7.6,11.2,7.6,19.2v260c0,16.4-12,29.6-26.8,29.6h-23.6
	c-15.6,0-29.6-14-29.6-29.6V135.6l-241.2,242C58,383.2,50.8,385.6,44,385.6z M98,8c-10.4,0-21.2,6.8-21.2,18.4V50
	c0,11.2,10.4,22,21.2,22h162.4c1.6,0,3.2,0.8,3.6,2.4c0.8,1.6,0.4,3.2-0.8,4.4l-250,248.8c-3.6,3.6-6,8.8-6,13.6
	c0,5.2,2,10,5.6,13.6l16.4,16.8c7.6,7.6,20,7.6,28,0l248-248.8c1.2-1.2,2.8-1.6,4.4-0.8c1.6,0.8,2.4,2,2.4,3.6v160.8
	c0,10.8,10.8,21.6,21.6,21.6h23.6c11.6,0,18.8-11.2,18.8-21.6v-260c0-5.6-1.6-10-5.2-13.2c-3.6-3.6-7.6-5.2-13.6-5.2L98,8L98,8z"/>
<path d="M44.4,363.2c-3.6,0-7.2-1.2-10-4l-7.6-7.6c-5.6-5.6-5.6-14,0-19.6L299.2,60.4H104.8c-7.6,0-15.6-5.2-15.6-13.6V33.2
	c0-8.4,8-12.8,15.6-12.8h188.4c2.4,0,4,1.6,4,4s-1.6,4-4,4H104.8c-3.2,0-7.6,1.6-7.6,4.8v13.6c0,3.2,4,5.6,7.6,5.6h204.4
	c1.6,0,3.2,0.8,3.6,2.4c0.8,1.6,0.4,3.2-0.8,4.4L32.8,337.6c-2.4,2.4-2.4,5.6,0,8l7.6,7.6c2.4,2.4,6.4,2.4,8.8,0l26-26.4l251.2-252
	c1.2-1.2,2.8-1.6,4.4-0.8c1.6,0.8,2.4,2,2.4,3.6V280c0,1.6,0.8,4,2.4,5.6c1.2,1.6,3.2,2.4,4.4,2.4l0,0h12c3.2,0,5.2-4.8,5.2-8V33.2
	c0-2.4-0.4-2.8-1.2-4c-0.8-0.8-1.6-1.2-4-1.2h-26.8c-2.4,0-4-1.6-4-4s1.6-4,4-4H352c3.2,0,6.4,0.4,9.6,3.6c3.2,3.2,3.6,6.4,3.6,9.6
	V280c0,8-4.8,16-13.2,16h-12l0,0c-4,0-7.6-2-10.4-5.2c-2.8-3.2-4.4-7.2-4.4-10.8V87.2L80.8,332.4l-26,26.4
	C52,361.6,48,363.2,44.4,363.2z"/>
</svg>