<?xml version="1.0" encoding="iso-8859-1"?>
<!-- Uploaded to: SVG Repo, www.svgrepo.com, Generator: SVG Repo Mixer Tools -->
<svg height="800px" width="800px" version="1.1" id="Layer_1" xmlns="http://www.w3.org/2000/svg" xmlns:xlink="http://www.w3.org/1999/xlink" 
	 viewBox="0 0 512 512" xml:space="preserve">
<circle style="fill:#324A5E;" cx="256" cy="256" r="256"/>
<path style="fill:#2B3B4E;" d="M308.262,506.654c103.343-21.437,183.861-105.172,200.542-210.179L365.22,153.043l-80.408,96.571
	L171.525,370.373L308.262,506.654z"/>
<path style="fill:#FFFFFF;" d="M364.858,152.66c-3.734-3.731-8.966-5.548-14.208-4.93l-85.675,10.097
	c-6.561,0.774-12.104,5.229-14.267,11.469c-2.167,6.241-0.574,13.171,4.096,17.842l25.598,25.597L147.146,345.991l24.381,24.381
	l133.256-133.256l25.598,25.598c3.288,3.287,7.696,5.049,12.193,5.049c1.893,0,3.801-0.312,5.647-0.953
	c6.241-2.167,10.695-7.708,11.469-14.267l10.097-85.673C370.407,161.626,368.588,156.393,364.858,152.66z"/>
<path style="fill:#E6F3FF;" d="M364.966,152.781L159.449,358.298l12.074,12.074L304.78,237.116l25.598,25.598
	c3.287,3.287,7.695,5.049,12.193,5.049c1.893,0,3.801-0.312,5.648-0.953c6.241-2.167,10.695-7.708,11.469-14.267l10.097-85.673
	C370.4,161.68,368.619,156.507,364.966,152.781z"/>
</svg>